<svg width="112" height="40" viewBox="0 0 112 40" fill="none" xmlns="http://www.w3.org/2000/svg">
<path d="M34.1564 28.0197H31.7057V13.3179H23.0318V10.8672H42.8295V13.3179H34.1564V28.0197Z" fill="#1D1D1B"/>
<path d="M58.7068 19.4439C58.7068 20.3254 58.487 21.1428 58.0459 21.893C57.6047 22.6456 57.0118 23.2457 56.2695 23.6947C55.5264 24.1437 54.705 24.3675 53.8062 24.3675H46.9948V21.9421H53.8062C54.4931 21.9421 55.0766 21.6938 55.5588 21.195C56.0402 20.6962 56.2814 20.1127 56.2814 19.4431C56.2814 18.7735 56.0402 18.1727 55.5588 17.6905C55.0766 17.209 54.4931 16.9679 53.8062 16.9679H45.7212V28.0182H43.2958V14.5417H53.807C54.7058 14.5417 55.5264 14.7615 56.2703 15.2026C57.0126 15.6438 57.6055 16.2367 58.0467 16.979C58.4878 17.7221 58.7076 18.5435 58.7076 19.4423L58.7068 19.4439Z" fill="#1D1D1B"/>
<path d="M76.3732 28.0197H73.9225V24.3199H64.4897V21.8202H73.9225V16.9686H67.5523C66.7515 16.9686 66.0242 17.1639 65.3712 17.5568C64.7174 17.9489 64.1949 18.4675 63.8027 19.1118C63.4106 19.7577 63.2146 20.481 63.2146 21.281V28.0189H60.7394V21.281C60.7394 20.3498 60.9149 19.4715 61.2667 18.647C61.6177 17.8224 62.1078 17.0991 62.7371 16.4777C63.3656 15.8579 64.0921 15.3717 64.9182 15.0199C65.7428 14.6681 66.6203 14.4926 67.5523 14.4926H76.3724V28.0181L76.3732 28.0197Z" fill="#1D1D1B"/>
<path d="M94.6775 24.0504C94.6775 24.7856 94.5012 25.4513 94.1502 26.0466C93.7984 26.6426 93.3209 27.1217 92.7161 27.4806C92.1113 27.8395 91.4417 28.0198 90.7065 28.0198H79.2642V25.5691H90.7065C91.1311 25.5691 91.4947 25.422 91.7967 25.128C92.0987 24.8339 92.2505 24.475 92.2505 24.0504C92.2505 23.6259 92.0987 23.2623 91.7967 22.9603C91.4947 22.6583 91.1311 22.5065 90.7065 22.5065H83.2098C82.4904 22.5065 81.8334 22.3278 81.2374 21.9673C80.6413 21.6084 80.163 21.1262 79.8033 20.5214C79.4444 19.9175 79.2642 19.2471 79.2642 18.5119C79.2642 17.7767 79.4444 17.1316 79.8033 16.5276C80.163 15.9228 80.6405 15.4414 81.2374 15.0817C81.8334 14.7228 82.4904 14.5425 83.2098 14.5425H93.7699V16.9679H83.2098C82.8003 16.9679 82.4453 17.1189 82.1441 17.4209C81.8406 17.7229 81.6903 18.0865 81.6903 18.5111C81.6903 18.9356 81.8413 19.2992 82.1441 19.6012C82.4453 19.9032 82.8011 20.0542 83.2098 20.0542H90.7065C91.4417 20.0542 92.1113 20.2345 92.7161 20.5942C93.3209 20.9531 93.7984 21.4353 94.1502 22.0393C94.5012 22.6448 94.6775 23.3144 94.6775 24.0496V24.0504Z" fill="#1D1D1B"/>
<path d="M112 24.0504C112 24.7856 111.824 25.4513 111.473 26.0466C111.121 26.6426 110.643 27.1217 110.039 27.4806C109.434 27.8395 108.764 28.0198 108.029 28.0198H96.5867V25.5691H108.029C108.454 25.5691 108.817 25.422 109.119 25.128C109.421 24.8339 109.573 24.475 109.573 24.0504C109.573 23.6259 109.421 23.2623 109.119 22.9603C108.817 22.6583 108.454 22.5065 108.029 22.5065H100.532C99.8129 22.5065 99.156 22.3278 98.5599 21.9673C97.9639 21.6084 97.4856 21.1262 97.1259 20.5214C96.767 19.9175 96.5867 19.2471 96.5867 18.5119C96.5867 17.7767 96.767 17.1316 97.1259 16.5276C97.4856 15.9228 97.9631 15.4414 98.5599 15.0817C99.156 14.7228 99.8129 14.5425 100.532 14.5425H111.092V16.9679H100.532C100.123 16.9679 99.7679 17.1189 99.4667 17.4209C99.1631 17.7229 99.0129 18.0865 99.0129 18.5111C99.0129 18.9356 99.1639 19.2992 99.4667 19.6012C99.7679 19.9032 100.124 20.0542 100.532 20.0542H108.029C108.764 20.0542 109.434 20.2345 110.039 20.5942C110.643 20.9531 111.121 21.4353 111.473 22.0393C111.824 22.6448 112 23.3144 112 24.0496V24.0504Z" fill="#1D1D1B"/>
<path d="M18.4063 14.0492C17.9565 13.8207 17.4924 13.6152 17.026 13.4215C17.075 12.9258 17.1098 12.4278 17.1209 11.925L17.1304 11.4997L16.7319 11.3503C14.3761 10.468 11.9064 10.0134 9.3917 10C9.35375 10 9.3166 10 9.27944 10C6.82954 10 4.41679 10.4198 2.10839 11.2483L1.70442 11.3929L1.71232 11.8222C1.71865 12.1819 1.75818 12.8626 1.81747 13.3891C1.32733 13.5899 0.843514 13.8089 0.372348 14.0484L0 14.2373L0.0482234 14.6516C0.17313 15.7299 0.388949 16.8003 0.690938 17.8319C2.3084 23.3626 6.122 27.0561 9.03674 29.1795L9.38933 29.4364L9.74191 29.1795C12.6567 27.0553 16.4703 23.3626 18.0877 17.8319C18.3889 16.8003 18.6055 15.7307 18.7304 14.6516L18.7787 14.2365L18.4063 14.0476V14.0492ZM2.92661 12.2333C5.01207 11.5352 7.19319 11.1858 9.38616 11.1993C11.6163 11.2111 13.8085 11.5906 15.9098 12.3266C15.8109 14.4966 15.3358 16.5995 14.4939 18.5845C13.1144 21.8384 11.0297 24.0733 9.39723 25.4425C7.82879 24.0733 6.50857 22.4725 5.46979 20.6763C4.65079 19.2613 4.02072 17.745 3.59146 16.1623C3.86103 16.0714 4.1314 15.9876 4.40256 15.9093C4.72431 17.2762 5.22077 18.5925 5.88404 19.8312C6.69277 21.3436 7.73313 22.712 8.97508 23.8994L9.38142 24.2876L9.79488 23.9065C11.6139 22.2305 13.0424 20.1506 13.9263 17.8904C14.5121 16.3931 14.8678 14.8136 14.984 13.1954L15.0196 12.7005L14.5397 12.5732C12.8796 12.1329 11.1578 11.91 9.42095 11.91H9.35771C7.35999 11.91 5.39153 12.204 3.50529 12.7835C3.3282 12.8381 3.15349 12.8989 2.97799 12.9582C2.95665 12.7218 2.93925 12.4657 2.92661 12.2333ZM5.56308 15.6129C6.83902 15.3291 8.11813 15.182 9.38854 15.182C10.8455 15.182 12.3064 15.3512 13.3871 15.6311C13.2338 16.2509 13.0424 16.8596 12.81 17.4541C12.0606 19.3711 10.8858 21.1499 9.39644 22.6298C8.42407 21.6274 7.59953 20.4977 6.94021 19.266C6.3228 18.1126 5.86112 16.8857 5.56308 15.6129ZM16.9375 17.496C15.4789 22.4843 12.1001 25.9003 9.38854 27.9502C6.67696 25.9011 3.29816 22.4843 1.84039 17.496C1.59611 16.6619 1.41192 15.801 1.29096 14.9314C2.12104 14.5338 2.98194 14.1978 3.85629 13.929C5.63818 13.3812 7.49676 13.1163 9.38775 13.1084H9.39012C10.8495 13.11 12.3262 13.2744 13.7445 13.6096C13.7144 13.8942 13.6725 14.1765 13.6267 14.4579C12.4495 14.1622 10.9088 13.9843 9.38933 13.9843C7.15129 13.9843 4.89032 14.3994 2.66889 15.2184L2.16926 15.4026L2.29417 15.9204C2.74715 17.8043 3.46655 19.6067 4.43339 21.2771C5.62474 23.3373 7.16394 25.1564 9.00749 26.6845L9.38142 26.9944L9.76247 26.6924C11.5475 25.2742 14.0093 22.7982 15.5975 19.0533C16.1983 17.6375 16.6236 16.1647 16.8711 14.6524C17.0782 14.7425 17.2845 14.835 17.4885 14.933C17.3667 15.8034 17.1825 16.6643 16.9391 17.4975L16.9375 17.496Z" fill="url(#paint0_linear_538_5369)"/>
<defs>
<linearGradient id="paint0_linear_538_5369" x1="-0.000790547" y1="19.719" x2="18.7787" y2="19.719" gradientUnits="userSpaceOnUse">
<stop stop-color="#213D82"/>
<stop offset="1" stop-color="#2F80ED"/>
</linearGradient>
</defs>
</svg>
