<svg width="120" height="120" viewBox="0 0 120 120" fill="none" xmlns="http://www.w3.org/2000/svg">
<path d="M23.2265 109.999H20.5337V93.8402H11V91.146H32.7602V93.8402H23.2265V109.999Z" fill="#1D1D1B"/>
<path d="M50.2117 100.572C50.2117 101.543 49.9706 102.44 49.4855 103.266C49.0004 104.092 48.349 104.753 47.5327 105.246C46.7157 105.74 45.8142 105.986 44.8267 105.986H37.3393V103.32H44.8267C45.58 103.32 46.2224 103.045 46.7511 102.498C47.2819 101.951 47.5459 101.308 47.5459 100.572C47.5459 99.835 47.2812 99.176 46.7511 98.6472C46.2224 98.1164 45.58 97.8524 44.8267 97.8524H35.9389V109.999H33.2731V95.1866H44.8267C45.8142 95.1866 46.7164 95.4278 47.5327 95.9128C48.3497 96.3979 49.0004 97.0493 49.4855 97.8656C49.9706 98.6826 50.2117 99.5841 50.2117 100.572V100.572Z" fill="#1D1D1B"/>
<path d="M69.6304 109.999H66.9376V105.933H56.5689V103.185H66.9376V97.8539H59.9359C59.0559 97.8539 58.2576 98.07 57.5397 98.4997C56.8204 98.9314 56.2459 99.5003 55.8163 100.21C55.3846 100.919 55.1684 101.714 55.1684 102.593V110H52.4492V102.593C52.4492 101.57 52.6419 100.605 53.0285 99.6978C53.4131 98.7921 53.9522 97.9973 54.6431 97.3147C55.334 96.6322 56.1344 96.0979 57.0414 95.7112C57.9471 95.3266 58.9124 95.1319 59.9366 95.1319H69.6311V109.999H69.6304Z" fill="#1D1D1B"/>
<path d="M89.7491 105.636C89.7491 106.444 89.5564 107.176 89.1698 107.83C88.7831 108.486 88.2578 109.012 87.5954 109.407C86.9294 109.802 86.1949 109.999 85.3862 109.999H72.8083V107.306H85.3862C85.8533 107.306 86.2517 107.144 86.5843 106.821C86.9156 106.498 87.0833 106.103 87.0833 105.636C87.0833 105.169 86.9163 104.769 86.5843 104.438C86.2524 104.107 85.8533 103.939 85.3862 103.939H77.1442C76.3542 103.939 75.6315 103.742 74.9773 103.347C74.3211 102.952 73.7958 102.422 73.4008 101.757C73.0058 101.095 72.8083 100.358 72.8083 99.5501C72.8083 98.7421 73.0058 98.0325 73.4008 97.368C73.7958 96.7034 74.3211 96.1747 74.9773 95.7797C75.6315 95.3847 76.3549 95.1872 77.1442 95.1872H88.7533V97.853H77.1442C76.6958 97.853 76.3057 98.0186 75.9731 98.352C75.6405 98.6853 75.4762 99.083 75.4762 99.5501C75.4762 100.017 75.6419 100.417 75.9731 100.748C76.3064 101.082 76.6958 101.247 77.1442 101.247H85.3862C86.1942 101.247 86.9294 101.445 87.5954 101.84C88.2578 102.235 88.7838 102.763 89.1698 103.428C89.5564 104.092 89.7491 104.828 89.7491 105.637V105.636Z" fill="#1D1D1B"/>
<path d="M108.788 105.636C108.788 106.444 108.595 107.176 108.209 107.83C107.822 108.486 107.297 109.012 106.634 109.407C105.968 109.802 105.234 109.999 104.425 109.999H91.8473V107.306H104.425C104.892 107.306 105.291 107.144 105.623 106.821C105.955 106.498 106.122 106.103 106.122 105.636C106.122 105.169 105.955 104.769 105.623 104.438C105.291 104.107 104.892 103.939 104.425 103.939H96.1831C95.3931 103.939 94.6704 103.742 94.0162 103.347C93.36 102.952 92.8347 102.422 92.4398 101.757C92.0448 101.095 91.8473 100.358 91.8473 99.5501C91.8473 98.7421 92.0448 98.0325 92.4398 97.368C92.8347 96.7034 93.36 96.1747 94.0162 95.7797C94.6704 95.3847 95.3938 95.1872 96.1831 95.1872H107.792V97.853H96.1831C95.7348 97.853 95.3446 98.0186 95.012 98.352C94.6808 98.6832 94.5152 99.083 94.5152 99.5501C94.5152 100.017 94.6808 100.417 95.012 100.748C95.3453 101.082 95.7348 101.247 96.1831 101.247H104.425C105.233 101.247 105.968 101.445 106.634 101.84C107.297 102.235 107.823 102.763 108.209 103.428C108.595 104.092 108.788 104.828 108.788 105.637V105.636Z" fill="#1D1D1B"/>
<path d="M91.5188 25.1987C89.9402 24.3983 88.3139 23.677 86.6771 22.9986C86.8483 21.2606 86.9716 19.513 87.0111 17.7508L87.0451 16.2595L85.6487 15.7357C77.3859 12.6402 68.724 11.0478 59.9026 11.0007C59.7703 11.0007 59.64 11 59.5083 11C50.915 11 42.4546 12.4718 34.3581 15.3767L32.9403 15.8853L32.9667 17.3911C32.9895 18.6523 33.1281 21.0403 33.3353 22.8863C31.6161 23.591 29.9204 24.3595 28.2657 25.198L26.9608 25.8598L27.1292 27.3136C27.5665 31.0971 28.3252 34.8502 29.3834 38.4674C35.0546 57.8661 48.4314 70.8181 58.6546 78.2674L59.8922 79.169L61.1298 78.2674C71.3524 70.8181 84.7285 57.8654 90.4011 38.4674C91.4578 34.8502 92.2173 31.0978 92.6552 27.3136L92.8243 25.8591L91.5181 25.1973L91.5188 25.1987ZM37.2263 18.8304C44.5411 16.3822 52.19 15.1564 59.8804 15.2035C67.7025 15.2444 75.3916 16.5748 82.7591 19.1582C82.4133 26.7682 80.7461 34.1441 77.7934 41.1055C72.9552 52.5185 65.6431 60.3552 59.9193 65.1588C54.4172 60.3573 49.7889 54.7408 46.146 48.4433C43.273 43.4796 41.0625 38.1618 39.5595 32.6113C40.5054 32.2911 41.454 31.9987 42.4027 31.7229C43.5322 36.5154 45.2729 41.1339 47.5978 45.4781C50.4354 50.782 54.0832 55.5828 58.4398 59.7468L59.8645 61.1084L61.3149 59.7724C67.6942 53.8947 72.705 46.5986 75.8032 38.6726C77.8571 33.422 79.1045 27.8818 79.514 22.2058L79.6394 20.4706L77.9569 20.0244C72.1347 18.4798 66.0956 17.6967 60.0045 17.6967H59.782C52.7769 17.6967 45.8709 18.7272 39.2546 20.7603C38.6344 20.9509 38.0204 21.1643 37.4044 21.3729C37.3302 20.5434 37.2679 19.6453 37.2249 18.8297L37.2263 18.8304ZM46.4738 30.6841C50.9482 29.6877 55.4358 29.1742 59.8915 29.1742C65 29.1742 70.1251 29.7674 73.9149 30.7507C73.3765 32.9231 72.7057 35.0595 71.8915 37.1439C69.2617 43.8683 65.1428 50.1063 59.9186 55.2959C56.5085 51.7791 53.6154 47.8189 51.3037 43.4976C49.1389 39.4514 47.5195 35.1503 46.4745 30.6848L46.4738 30.6841ZM86.3673 37.2894C81.2519 54.7852 69.4024 66.7664 59.8915 73.9545C50.3807 66.7664 38.5325 54.7838 33.4178 37.2894C32.562 34.3651 31.9155 31.3459 31.49 28.2948C34.4004 26.9013 37.421 25.7205 40.4887 24.7781C46.7385 22.8579 53.2579 21.9266 59.8888 21.9002H59.8957C65.0132 21.9071 70.193 22.4823 75.1678 23.6576C75.0624 24.6561 74.9148 25.6463 74.7534 26.6331C70.6241 25.5951 65.2218 24.9714 59.8915 24.9714C52.041 24.9714 44.1115 26.4273 36.322 29.2989L34.5688 29.9455L35.0061 31.7617C36.5943 38.3697 39.1194 44.6902 42.508 50.5478C46.6879 57.7718 52.0854 64.1526 58.5507 69.5119L59.8631 70.5992L61.1991 69.5396C67.4607 64.567 76.0943 55.8815 81.6629 42.7465C83.7695 37.7793 85.2614 32.6147 86.129 27.3115C86.8559 27.6275 87.58 27.9525 88.2945 28.2948C87.869 31.3466 87.2225 34.3658 86.368 37.2894H86.3673Z" fill="url(#paint0_linear_538_5390)"/>
<defs>
<linearGradient id="paint0_linear_538_5390" x1="26.9615" y1="45.0852" x2="92.8243" y2="45.0852" gradientUnits="userSpaceOnUse">
<stop stop-color="#213D82"/>
<stop offset="1" stop-color="#2F80ED"/>
</linearGradient>
</defs>
</svg>
