<svg width="252" height="42" viewBox="0 0 252 42" fill="none" xmlns="http://www.w3.org/2000/svg">
<g clip-path="url(#clip0_538_2124)">
<path d="M76.8534 38.9355H71.3393V7.1677H51.8232V1.87222H96.3677V7.1677H76.8534V38.9355Z" fill="#1D1D1B"/>
<path d="M132.091 20.4047C132.091 22.3093 131.597 24.0756 130.604 25.6967C129.612 27.323 128.278 28.6195 126.608 29.5898C124.936 30.5601 123.087 31.0435 121.065 31.0435H105.74V25.8027H121.065C122.611 25.8027 123.923 25.2663 125.008 24.1884C126.092 23.1105 126.634 21.8498 126.634 20.403C126.634 18.9561 126.092 17.6579 125.008 16.6159C123.923 15.5755 122.611 15.0545 121.065 15.0545H102.874V38.932H97.417V9.81543H121.067C123.089 9.81543 124.936 10.2903 126.609 11.2435C128.28 12.1967 129.614 13.4779 130.606 15.0819C131.599 16.6876 132.093 18.4624 132.093 20.4047H132.091Z" fill="#1D1D1B"/>
<path d="M171.84 38.9355H166.326V30.941H145.102V25.5396H166.326V15.0563H151.993C150.191 15.0563 148.555 15.4782 147.086 16.3272C145.615 17.1745 144.439 18.295 143.557 19.6872C142.674 21.0829 142.233 22.6459 142.233 24.3746V38.9338H136.664V24.3746C136.664 22.3623 137.059 20.4645 137.85 18.6828C138.64 16.9011 139.743 15.3381 141.159 13.9955C142.573 12.6562 144.208 11.6057 146.066 10.8455C147.922 10.0853 149.896 9.70612 151.993 9.70612H171.838V38.932L171.84 38.9355Z" fill="#1D1D1B"/>
<path d="M213.024 30.3585C213.024 31.9471 212.628 33.3854 211.838 34.6717C211.046 35.9597 209.972 36.9949 208.611 37.7704C207.251 38.546 205.744 38.9355 204.09 38.9355H178.345V33.64H204.09C205.045 33.64 205.863 33.3222 206.543 32.6868C207.222 32.0513 207.564 31.2758 207.564 30.3585C207.564 29.4412 207.222 28.6554 206.543 28.0028C205.863 27.3503 205.045 27.0223 204.09 27.0223H187.222C185.604 27.0223 184.126 26.6363 182.784 25.8573C181.443 25.0818 180.367 24.0398 179.558 22.733C178.75 21.4279 178.345 19.9793 178.345 18.3907C178.345 16.802 178.75 15.4081 179.558 14.1031C180.367 12.7963 181.441 11.756 182.784 10.9787C184.126 10.2032 185.604 9.81372 187.222 9.81372H210.982V15.0545H187.222C186.301 15.0545 185.502 15.3808 184.825 16.0333C184.142 16.6859 183.804 17.4717 183.804 18.389C183.804 19.3063 184.143 20.0921 184.825 20.7446C185.502 21.3972 186.303 21.7234 187.222 21.7234H204.09C205.744 21.7234 207.251 22.1129 208.611 22.8901C209.972 23.6657 211.046 24.7077 211.838 26.0128C212.628 27.3213 213.024 28.7681 213.024 30.3568V30.3585Z" fill="#1D1D1B"/>
<path d="M252 30.3585C252 31.9471 251.603 33.3854 250.814 34.6717C250.022 35.9597 248.948 36.9949 247.587 37.7704C246.226 38.546 244.72 38.9355 243.065 38.9355H217.32V33.64H243.065C244.021 33.64 244.839 33.3222 245.518 32.6868C246.198 32.0513 246.539 31.2758 246.539 30.3585C246.539 29.4412 246.198 28.6554 245.518 28.0028C244.839 27.3503 244.021 27.0223 243.065 27.0223H226.198C224.579 27.0223 223.101 26.6363 221.76 25.8573C220.419 25.0818 219.343 24.0398 218.533 22.733C217.726 21.4279 217.32 19.9793 217.32 18.3907C217.32 16.802 217.726 15.4081 218.533 14.1031C219.343 12.7963 220.417 11.756 221.76 10.9787C223.101 10.2032 224.579 9.81372 226.198 9.81372H249.958V15.0545H226.198C225.277 15.0545 224.478 15.3808 223.8 16.0333C223.117 16.6859 222.779 17.4717 222.779 18.389C222.779 19.3063 223.119 20.0921 223.8 20.7446C224.478 21.3972 225.278 21.7234 226.198 21.7234H243.065C244.72 21.7234 246.226 22.1129 247.587 22.8901C248.948 23.6657 250.022 24.7077 250.814 26.0128C251.603 27.3213 252 28.7681 252 30.3568V30.3585Z" fill="#1D1D1B"/>
<path d="M41.4159 8.74779C40.4038 8.25412 39.3597 7.80998 38.3102 7.39147C38.4205 6.32041 38.4988 5.24424 38.5237 4.15781L38.545 3.23878L37.6485 2.91593C32.348 1.01127 26.7912 0.0290397 21.1331 0C21.0478 0 20.9642 0 20.8806 0C15.3683 0 9.93966 0.907065 4.7458 2.69728L3.83687 3.00988L3.85466 3.93745C3.86889 4.71469 3.95782 6.18546 4.09123 7.32314C2.98842 7.75703 1.89985 8.2302 0.83973 8.74779L0.00195312 9.15606L0.110455 10.0512C0.391493 12.3812 0.877083 14.6941 1.55655 16.9233C5.19581 28.874 13.7764 36.8548 20.3345 41.4431L21.1278 41.9983L21.9211 41.4431C28.4792 36.8531 37.0598 28.874 40.699 16.9233C41.3767 14.6941 41.8641 12.3829 42.1451 10.0512L42.2536 9.15435L41.4159 8.74609V8.74779ZM6.58499 4.82401C11.2773 3.31565 16.1847 2.56062 21.1189 2.58966C26.1367 2.61528 31.0691 3.43523 35.7969 5.02558C35.5746 9.71465 34.5055 14.2585 32.6112 18.5479C29.5073 25.5789 24.8169 30.408 21.1438 33.3667C17.6148 30.408 14.6444 26.9489 12.3071 23.0678C10.4644 20.0101 9.04674 16.7337 8.08089 13.3139C8.68744 13.1174 9.29576 12.9363 9.90586 12.7672C10.6298 15.7207 11.7468 18.5649 13.2392 21.2417C15.0588 24.5095 17.3996 27.4665 20.194 30.0322L21.1082 30.8709L22.0385 30.0476C26.1313 26.4262 29.3455 21.9318 31.3341 17.048C32.6521 13.8127 33.4525 10.3996 33.714 6.90292L33.7941 5.83357L32.7144 5.55855C28.9791 4.60707 25.105 4.12535 21.1972 4.12535H21.0549C16.56 4.12535 12.131 4.76081 7.88701 6.01293C7.48858 6.1308 7.09548 6.26233 6.70061 6.39045C6.65258 5.87969 6.61345 5.32623 6.58499 4.82401ZM12.517 12.1267C15.3879 11.5134 18.2658 11.1957 21.1242 11.1957C24.4024 11.1957 27.6895 11.5612 30.121 12.1659C29.7759 13.5052 29.3455 14.8205 28.8225 16.1051C27.1363 20.2475 24.4931 24.091 21.142 27.2888C18.9542 25.1228 17.099 22.6817 15.6155 20.0203C14.2264 17.528 13.1876 14.8769 12.517 12.1267ZM38.1092 16.1956C34.8275 26.9745 27.2252 34.3557 21.1242 38.7851C15.0232 34.3574 7.42099 26.9745 4.14103 16.1956C3.59141 14.3935 3.17697 12.5332 2.90482 10.6542C4.77248 9.79493 6.7095 9.06894 8.67676 8.48814C12.686 7.30435 16.8678 6.73209 21.1225 6.71501H21.1278C24.4113 6.71843 27.734 7.07374 30.925 7.79802C30.8574 8.41298 30.7631 9.02282 30.66 9.63094C28.0114 8.99207 24.5447 8.60772 21.126 8.60772C16.0905 8.60772 11.0033 9.50453 6.00513 11.2743L4.88098 11.6723L5.16202 12.7911C6.18122 16.8618 7.79986 20.7566 9.97523 24.366C12.6558 28.8177 16.1189 32.7483 20.2669 36.0503L21.1082 36.7199L21.9656 36.0674C25.9819 33.0028 31.5209 27.6527 35.0943 19.5608C36.4461 16.5014 37.4031 13.319 37.9598 10.0512C38.4258 10.2459 38.8901 10.4458 39.349 10.6576C39.0751 12.5383 38.6606 14.3986 38.1128 16.199L38.1092 16.1956Z" fill="url(#paint0_linear_538_2124)"/>
</g>
<defs>
<linearGradient id="paint0_linear_538_2124" x1="0.000174406" y1="20.9991" x2="42.2536" y2="20.9991" gradientUnits="userSpaceOnUse">
<stop stop-color="#213D82"/>
<stop offset="1" stop-color="#2F80ED"/>
</linearGradient>
<clipPath id="clip0_538_2124">
<rect width="252" height="42" fill="white"/>
</clipPath>
</defs>
</svg>
