<svg width="24" height="24" viewBox="0 0 24 24" fill="none" xmlns="http://www.w3.org/2000/svg">
<path d="M12.7271 20H11.2729C11.0778 20 10.9106 19.833 10.9106 19.6383V13.0446H4.36237C4.16725 13.0446 4 12.8777 4 12.6829V11.3171C4 11.1223 4.16725 10.9554 4.36237 10.9554H10.9106V4.36174C10.9106 4.16696 11.0778 4 11.2729 4H12.7271C12.9222 4 13.0894 4.16696 13.0894 4.36174V10.9554H19.6376C19.8328 10.9554 20 11.1223 20 11.3171V12.6829C20 12.8777 19.8328 13.0446 19.6376 13.0446H13.0894V19.6383C13.0894 19.833 12.9222 20 12.7271 20Z" fill="#868C91"/>
</svg>
