<svg width="40" height="40" viewBox="0 0 40 40" fill="none" xmlns="http://www.w3.org/2000/svg">
<g clip-path="url(#clip0_364_4519)">
<path fill-rule="evenodd" clip-rule="evenodd" d="M14.0001 10C13.4478 10 13.0001 10.4713 13.0001 11.0526V27.8947L11 27.8947C10.4477 27.8947 10 28.366 10 28.9474C10 29.5287 10.4477 30 11 30H29C29.5523 30 30 29.5287 30 28.9474C30 28.366 29.5523 27.8947 29 27.8947L27.0001 27.8947V11.0526C27.0001 10.4713 26.5524 10 26.0001 10H14.0001ZM22.0001 27.8947V24.2105C22.0001 23.9199 21.7762 23.6842 21.5001 23.6842H18.5001C18.2239 23.6842 18.0001 23.9199 18.0001 24.2105V27.8947H22.0001ZM15.5001 12.1053C15.2239 12.1053 15.0001 12.3409 15.0001 12.6316V13.6842C15.0001 13.9749 15.2239 14.2105 15.5001 14.2105H16.5001C16.7762 14.2105 17.0001 13.9749 17.0001 13.6842V12.6316C17.0001 12.3409 16.7762 12.1053 16.5001 12.1053H15.5001ZM19.0001 12.6316C19.0001 12.3409 19.2239 12.1053 19.5001 12.1053H20.5001C20.7762 12.1053 21.0001 12.3409 21.0001 12.6316V13.6842C21.0001 13.9749 20.7762 14.2105 20.5001 14.2105H19.5001C19.2239 14.2105 19.0001 13.9749 19.0001 13.6842V12.6316ZM23.5001 12.1053C23.2239 12.1053 23.0001 12.3409 23.0001 12.6316V13.6842C23.0001 13.9749 23.2239 14.2105 23.5001 14.2105H24.5001C24.7762 14.2105 25.0001 13.9749 25.0001 13.6842V12.6316C25.0001 12.3409 24.7762 12.1053 24.5001 12.1053H23.5001ZM15.0001 16.8421C15.0001 16.5514 15.2239 16.3158 15.5001 16.3158H16.5001C16.7762 16.3158 17.0001 16.5514 17.0001 16.8421V17.8947C17.0001 18.1854 16.7762 18.4211 16.5001 18.4211H15.5001C15.2239 18.4211 15.0001 18.1854 15.0001 17.8947V16.8421ZM15.5001 20.5263C15.2239 20.5263 15.0001 20.762 15.0001 21.0526V22.1053C15.0001 22.3959 15.2239 22.6316 15.5001 22.6316H16.5001C16.7762 22.6316 17.0001 22.3959 17.0001 22.1053V21.0526C17.0001 20.762 16.7762 20.5263 16.5001 20.5263H15.5001ZM19.0001 16.8421C19.0001 16.5514 19.2239 16.3158 19.5001 16.3158H20.5001C20.7762 16.3158 21.0001 16.5514 21.0001 16.8421V17.8947C21.0001 18.1854 20.7762 18.4211 20.5001 18.4211H19.5001C19.2239 18.4211 19.0001 18.1854 19.0001 17.8947V16.8421ZM19.5001 20.5263C19.2239 20.5263 19.0001 20.762 19.0001 21.0526V22.1053C19.0001 22.3959 19.2239 22.6316 19.5001 22.6316H20.5001C20.7762 22.6316 21.0001 22.3959 21.0001 22.1053V21.0526C21.0001 20.762 20.7762 20.5263 20.5001 20.5263H19.5001ZM23.0001 16.8421C23.0001 16.5514 23.2239 16.3158 23.5001 16.3158H24.5001C24.7762 16.3158 25.0001 16.5514 25.0001 16.8421V17.8947C25.0001 18.1854 24.7762 18.4211 24.5001 18.4211H23.5001C23.2239 18.4211 23.0001 18.1854 23.0001 17.8947V16.8421ZM23.5001 20.5263C23.2239 20.5263 23.0001 20.762 23.0001 21.0526V22.1053C23.0001 22.3959 23.2239 22.6316 23.5001 22.6316H24.5001C24.7762 22.6316 25.0001 22.3959 25.0001 22.1053V21.0526C25.0001 20.762 24.7762 20.5263 24.5001 20.5263H23.5001Z" fill="white"/>
</g>
<defs>
<clipPath id="clip0_364_4519">
<rect width="40" height="40" rx="10" fill="white"/>
</clipPath>
</defs>
</svg>
