<svg width="40" height="40" viewBox="0 0 40 40" fill="none" xmlns="http://www.w3.org/2000/svg">
<g clip-path="url(#clip0_405_252)">
<path fill-rule="evenodd" clip-rule="evenodd" d="M9.8 17.1428C8.80589 17.1428 8 17.9487 8 18.9428V31.7065C8 32.7006 8.80589 33.5065 9.8 33.5065H30.2C31.1941 33.5065 32 32.7006 32 31.7065V18.9428C32 17.9487 31.1941 17.1428 30.2 17.1428H9.8ZM17.581 28.9005V22.8365H16.357V27.2605L13.333 22.8365H11.701V28.9005H12.933V24.4685L15.877 28.9005H17.581ZM22.8625 24.0365V22.8365H18.6465V28.9005H19.8545V26.4765H22.3745V25.2525H19.8545V24.0365H22.8625ZM23.1607 25.8685C23.1607 27.5645 24.3287 28.9645 26.1527 28.9645C26.9847 28.9645 27.7287 28.6125 28.2647 28.0605L27.4967 27.1325C27.1927 27.4445 26.6087 27.6445 26.1447 27.6445C25.0567 27.6445 24.3687 26.8605 24.3687 25.8685C24.3687 24.8845 25.0567 24.0925 26.1447 24.1005C26.6087 24.1005 27.1927 24.2925 27.4967 24.6045L28.2647 23.6765C27.7287 23.1245 26.9847 22.7725 26.1527 22.7725C24.3287 22.7645 23.1607 24.1725 23.1607 25.8685Z" fill="white"/>
<path d="M17.0688 14.1428C17.7926 13.679 18.6585 13.4298 19.5463 13.4298C20.4341 13.4298 21.3 13.679 22.0237 14.1428" stroke="white" stroke-width="2" stroke-linecap="round" stroke-linejoin="round"/>
<path d="M14.5522 11.8536C15.9614 10.7948 17.7374 10.2151 19.5713 10.2151C21.4053 10.2151 23.1812 10.7948 24.5904 11.8536" stroke="white" stroke-width="2" stroke-linecap="round" stroke-linejoin="round"/>
<path d="M12 9.5706C14.0835 7.91401 16.7655 7 19.5429 7C22.3202 7 25.0022 7.91401 27.0857 9.5706" stroke="white" stroke-width="2" stroke-linecap="round" stroke-linejoin="round"/>
</g>
<defs>
<clipPath id="clip0_405_252">
<rect width="40" height="40" rx="10" fill="white"/>
</clipPath>
</defs>
</svg>
