<svg width="32" height="32" viewBox="0 0 32 32" fill="none" xmlns="http://www.w3.org/2000/svg">
<g clip-path="url(#clip0_30_172)">
<path d="M18.827 5.33341L21.267 8.00008H26.667V24.0001H5.33366V8.00008H10.7337L13.1737 5.33341H18.827ZM20.0003 2.66675H12.0003L9.56033 5.33341H5.33366C3.86699 5.33341 2.66699 6.53341 2.66699 8.00008V24.0001C2.66699 25.4667 3.86699 26.6667 5.33366 26.6667H26.667C28.1337 26.6667 29.3337 25.4667 29.3337 24.0001V8.00008C29.3337 6.53341 28.1337 5.33341 26.667 5.33341H22.4403L20.0003 2.66675ZM16.0003 12.0001C18.2003 12.0001 20.0003 13.8001 20.0003 16.0001C20.0003 18.2001 18.2003 20.0001 16.0003 20.0001C13.8003 20.0001 12.0003 18.2001 12.0003 16.0001C12.0003 13.8001 13.8003 12.0001 16.0003 12.0001ZM16.0003 9.33342C12.3203 9.33342 9.33366 12.3201 9.33366 16.0001C9.33366 19.6801 12.3203 22.6667 16.0003 22.6667C19.6803 22.6667 22.667 19.6801 22.667 16.0001C22.667 12.3201 19.6803 9.33342 16.0003 9.33342Z" fill="#323232"/>
</g>
<defs>
<clipPath id="clip0_30_172">
<rect width="32" height="32" fill="white"/>
</clipPath>
</defs>
</svg>
