<svg width="32" height="32" viewBox="0 0 32 32" fill="none" xmlns="http://www.w3.org/2000/svg">
<g clip-path="url(#clip0_30_177)">
<path d="M16.0003 5.33341C18.5737 5.33341 22.667 7.20008 22.667 12.2001C22.667 15.0801 20.3737 18.4267 16.0003 21.9601C11.627 18.4267 9.33366 15.0667 9.33366 12.2001C9.33366 7.20008 13.427 5.33341 16.0003 5.33341ZM16.0003 2.66675C11.6403 2.66675 6.66699 5.94675 6.66699 12.2001C6.66699 16.3601 9.77366 20.7467 16.0003 25.3334C22.227 20.7467 25.3337 16.3601 25.3337 12.2001C25.3337 5.94675 20.3603 2.66675 16.0003 2.66675Z" fill="#323232"/>
<path d="M16.0003 9.33325C14.5337 9.33325 13.3337 10.5333 13.3337 11.9999C13.3337 13.4666 14.5337 14.6666 16.0003 14.6666C16.7076 14.6666 17.3858 14.3856 17.8859 13.8855C18.386 13.3854 18.667 12.7072 18.667 11.9999C18.667 11.2927 18.386 10.6144 17.8859 10.1143C17.3858 9.6142 16.7076 9.33325 16.0003 9.33325ZM6.66699 26.6666H25.3337V29.3333H6.66699V26.6666Z" fill="#323232"/>
</g>
<defs>
<clipPath id="clip0_30_177">
<rect width="32" height="32" fill="white"/>
</clipPath>
</defs>
</svg>
