<svg width="56" height="56" viewBox="0 0 56 56" fill="none" xmlns="http://www.w3.org/2000/svg">
<path fill-rule="evenodd" clip-rule="evenodd" d="M29.6667 41.3333C30.219 41.3333 30.6667 40.8856 30.6667 40.3333V37.4095C31.4061 37.2004 32.1099 36.9064 32.767 36.5389L35.0238 38.7957C35.4143 39.1862 36.0475 39.1862 36.438 38.7957L38.795 36.4387C39.1856 36.0481 39.1856 35.415 38.795 35.0245L36.5384 32.7678C36.9062 32.1106 37.2004 31.4065 37.4096 30.6668H40.3334C40.8856 30.6668 41.3334 30.2191 41.3334 29.6668V26.3334C41.3334 25.7812 40.8856 25.3334 40.3334 25.3334H37.4098C37.197 24.581 36.8963 23.8653 36.5196 23.1984L38.3643 21.3537C38.7548 20.9632 38.7548 20.33 38.3643 19.9395L36.0073 17.5825C35.6167 17.192 34.9836 17.192 34.5931 17.5825L32.7334 19.4421C32.086 19.0832 31.3935 18.7957 30.6667 18.5901V15.6667C30.6667 15.1144 30.219 14.6667 29.6667 14.6667H26.3334C25.7811 14.6667 25.3334 15.1144 25.3334 15.6667V18.5901C24.5935 18.7993 23.8893 19.0935 23.2319 19.4614L21.3531 17.5825C20.9625 17.192 20.3294 17.192 19.9388 17.5825L17.5818 19.9395C17.1913 20.33 17.1913 20.9632 17.5818 21.3537L19.4609 23.2328C19.0933 23.89 18.7993 24.5939 18.5902 25.3334H15.6667C15.1144 25.3334 14.6667 25.7812 14.6667 26.3334V29.6668C14.6667 30.2191 15.1144 30.6668 15.6667 30.6668H18.5903C18.7959 31.3936 19.0834 32.0859 19.4423 32.7333L17.1511 35.0245C16.7606 35.415 16.7606 36.0481 17.1511 36.4387L19.5081 38.7957C19.8986 39.1862 20.5318 39.1862 20.9223 38.7957L23.1985 36.5195C23.8654 36.8961 24.5809 37.1968 25.3334 37.4096V40.3333C25.3334 40.8856 25.7811 41.3333 26.3334 41.3333H29.6667ZM28.0006 32.4447C30.4552 32.4447 32.4451 30.4548 32.4451 28.0002C32.4451 25.5456 30.4552 23.5558 28.0006 23.5558C25.546 23.5558 23.5562 25.5456 23.5562 28.0002C23.5562 30.4548 25.546 32.4447 28.0006 32.4447Z" fill="white"/>
</svg>
